<?xml version="1.0" encoding="UTF-8" standalone="no"?>
<!DOCTYPE svg PUBLIC "-//W3C//DTD SVG 1.1//EN" "http://www.w3.org/Graphics/SVG/1.1/DTD/svg11.dtd">
<svg width="100%" height="100%" viewBox="0 0 4265 558" version="1.1" xmlns="http://www.w3.org/2000/svg" xmlns:xlink="http://www.w3.org/1999/xlink" xml:space="preserve" xmlns:serif="http://www.serif.com/" style="fill-rule:evenodd;clip-rule:evenodd;stroke-linejoin:round;stroke-miterlimit:2;">
    <g transform="matrix(4.495117,0,0,4.495117,-88.761732,-178.298483)">
        <path d="M256.534,40.833C282.251,36.137 298.068,46.393 300.547,57.49C306.524,84.255 278.278,94.422 249.594,86.149C230.451,80.627 223.727,46.149 256.534,40.833ZM258.156,56.112C249.03,65.949 258.462,78.047 271.455,75.272C287.24,71.9 280.382,47.98 262.532,53.598C260.072,54.373 260.208,54.547 258.156,56.112Z" style="fill:rgb(251,251,251);"/>
        <path d="M138.5,40.822C163.85,40.822 165.918,40.369 166.088,42.554C166.11,42.838 167.444,51.751 163.529,51.812C134.008,52.279 131.422,50.138 131.305,54.491C131.133,60.885 134.183,58.811 140.5,58.812C155.482,58.813 160.556,58.271 160.67,60.472C160.702,61.103 161.044,67.693 159.414,68.266C156.949,69.131 132.75,67.22 131.579,69.542C131.015,70.661 130.766,75.328 133.512,75.391C148.74,75.741 167.409,74.413 168.401,76.547C168.685,77.157 169.347,86.895 167.538,87.587C165.957,88.191 119.663,87.834 115.5,87.802C112.179,87.776 110.686,88.841 110.619,85.491C110.549,81.993 109.778,43.448 110.86,41.748C111.597,40.591 111.935,40.822 138.5,40.822Z" style="fill:rgb(252,252,252);"/>
        <path d="M490.5,40.822C493.614,40.833 502.183,40.029 502.289,42.532C503.792,78.314 500.594,89.687 466.486,88.752C443.418,88.119 441.189,72.007 440.838,69.464C440.747,68.805 439.205,41.695 441.628,40.939C442.233,40.751 459.223,40.807 459.435,40.868C466.263,42.839 451.423,77.091 473.492,75.418C488.161,74.307 476.762,41.136 483.531,40.836C484.451,40.795 484.396,40.834 490.5,40.822Z" style="fill:rgb(250,250,250);"/>
        <path d="M427.5,40.822C433.918,41.413 434.8,40.701 434.896,42.423C436.427,69.811 433.543,74.886 432.16,77.321C423.224,93.052 381.363,94.655 374.647,73.457C371.76,64.344 373.587,41.619 373.614,41.583C374.245,40.759 393.164,39.509 393.955,42.388C396.19,50.524 386.982,77.138 406.488,75.4C420.956,74.111 409.453,41.098 416.526,40.833C416.526,40.833 426.622,40.823 427.5,40.822Z" style="fill:rgb(250,250,250);"/>
        <path d="M360.5,40.822C365.94,41.339 367.931,39.582 367.968,43.488C368.236,71.328 371.468,89.621 333.497,88.79C310.646,88.29 307.219,73.014 306.651,70.477C306.419,69.446 304.909,41.914 307.282,41.072C307.733,40.911 325.147,40.143 326.416,41.569C329.992,45.59 318.374,77.386 339.487,75.392C353.793,74.041 342.496,41.06 349.518,40.827C350.396,40.797 350.331,40.826 360.5,40.822Z" style="fill:rgb(252,252,252);"/>
        <path d="M426.7,142.748C421.401,152.873 416.62,162.29 413.513,162.618C403.908,163.631 403.118,161.12 401.969,159.219C393.997,146.036 394.247,145.898 394.148,145.735C389.019,137.283 391.453,148.279 391.186,160.47C391.106,164.146 377.073,163.093 376.559,161.471C375.989,159.669 376.306,132.971 376.335,130.492C376.371,127.426 379.655,127.689 391.489,127.906C394.286,127.958 394.674,128.387 408.393,150.608C411.231,155.205 421.981,128.933 426.563,127.963C427.027,127.864 441.231,127.89 441.431,127.942C443.387,128.451 443.206,129.283 443.181,159.496C443.177,163.82 438.107,162.735 431.498,162.66C427.671,162.617 428.058,161.364 428.048,157.501C428.012,144.625 429.824,142.769 426.7,142.748Z" style="fill:rgb(245,175,55);"/>
        <path d="M93.5,40.822C100.907,40.867 101.214,40.024 102.587,41.409C102.787,41.611 105.225,67.8 100.133,77.294C91.163,94.014 41.62,95.46 41.374,66.499C41.371,66.226 41.352,63.914 43.543,63.865C60.983,63.469 61.362,63.967 61.901,65.338C63.272,68.824 61.7,76.275 74.487,75.395C88.755,74.414 77.909,41.113 84.528,40.834C86.491,40.751 86.451,40.831 93.5,40.822Z" style="fill:rgb(250,250,250);"/>
        <path d="M463.547,127.91C465.852,127.666 490.295,123.789 495.742,138.406C503.717,159.805 476.965,167.952 459.554,161.358C440.542,154.158 445.129,130.94 463.547,127.91ZM476.612,152.905C476.999,152.743 479.495,151.703 480.691,149.614C489.512,134.202 457.039,132.635 463.395,148.544C465.731,154.392 475.509,153.055 476.612,152.905Z" style="fill:rgb(245,175,54);"/>
        <path d="M871.552,127.934C882.893,126.827 883.577,127.339 887.462,127.755C889.046,127.924 901.141,129.22 904.136,138.643C913.337,167.593 866.597,169.828 858.245,153.644C848.503,134.768 869.332,128.592 871.552,127.934ZM876.38,152.886C877.668,153.066 891.659,155.029 890.314,144.518C888.54,130.656 863.737,137.984 872.78,150.286C874.141,152.137 874.234,151.997 876.38,152.886Z" style="fill:rgb(245,175,55);"/>
        <path d="M635.448,127.938C638.79,128.932 648.13,130.311 650.453,141.509C656.028,168.39 610.496,168.173 603.975,154.145C603.383,152.872 599.398,144.301 603.685,136.605C610.252,124.815 629.293,127.334 635.448,127.938ZM630.617,152.881C633.1,151.772 633.292,151.99 634.578,149.544C642.405,134.664 613.845,132.743 616.774,146.463C618.775,155.838 628.19,153.227 630.617,152.881Z" style="fill:rgb(245,175,54);"/>
        <path d="M355.451,127.912C376.697,131.526 378.951,161.165 350.484,163.245C348.05,163.423 325.481,165.071 322.807,150.41C317.616,121.952 351.226,127.686 355.451,127.912ZM342.382,152.893C344.642,153.208 353.188,155.617 355.805,147.588C360.273,133.883 331.733,132.676 337.988,149.265C338.781,151.37 341.962,152.715 342.382,152.893Z" style="fill:rgb(245,175,54);"/>
        <path d="M185.5,40.822C190.154,40.823 196.702,39.65 196.731,43.495C196.934,70.988 195.411,75.38 199.503,75.409C225.129,75.589 232.332,74.369 232.452,77.505C232.597,81.289 233.665,87.747 229.519,87.793C225.353,87.84 181.202,88.335 177.441,87.693C175.779,87.409 176.062,86.526 176.062,49.5C176.062,48.857 176.062,41.951 176.47,41.472C177.019,40.83 184.776,40.823 185.5,40.822Z" style="fill:rgb(253,253,253);"/>
        <path d="M773.5,127.902C805.856,127.905 807.001,127.525 807.186,129.556C807.245,130.213 807.875,137.142 805.529,137.623C801.937,138.361 781.717,135.961 781.479,139.499C781.128,144.712 802.453,139.006 803.257,143.546C804.407,150.037 801.054,148.757 794.5,148.758C790.461,148.759 780.676,147.611 781.558,151.486C782.373,155.068 808.064,150.641 808.911,154.375C809.17,155.519 809.561,162.286 807.52,162.58C807.423,162.594 768.373,162.951 767.577,162.354C765.963,161.145 766.304,128.948 767.388,128.348C768.465,127.751 768.478,128.03 773.5,127.902Z" style="fill:rgb(244,175,56);"/>
        <path d="M207.499,127.901C211.469,128.214 213.457,126.47 213.477,130.501C213.479,131.058 213.506,136.64 212.446,137.394C210.56,138.733 187.994,135.698 187.772,139.514C187.473,144.651 208.995,139.098 209.355,143.529C209.833,149.419 207.454,148.732 201.5,148.756C199.752,148.763 186.424,147.63 187.836,151.426C189.234,155.187 213.878,150.612 214.984,154.325C215.182,154.991 217.45,162.603 212.51,162.654C209.468,162.685 177.507,163.015 174.482,162.567C172.37,162.254 172.927,158.458 172.899,136.5C172.898,135.856 172.89,129.112 173.479,128.475C174.143,127.757 174.344,127.909 207.499,127.901Z" style="fill:rgb(243,175,56);"/>
        <path d="M683.451,127.882C694.244,129.462 698.073,138.625 694.644,138.934C684.185,139.875 671.293,134.794 670.534,138.513C669.708,142.553 693.057,138.25 696.369,147.544C698.747,154.214 690.02,161.736 684.509,162.545C682.032,162.909 657.877,166.456 654.558,153.486C653.208,148.209 674.238,153.759 676.492,153.442C682.515,152.594 678.96,150.127 678.643,150.103C675.206,149.848 647.246,150.978 655.405,135.449C661.359,124.117 682.162,127.786 683.451,127.882Z" style="fill:rgb(245,175,55);"/>
        <path d="M247.454,127.87C258.198,129.267 262.573,138.613 258.613,138.963C248.127,139.887 236.656,134.734 234.713,138.577C232.633,142.692 264.911,137.111 260.518,152.505C255.699,169.391 218.261,164.541 218.765,152.554C218.912,149.06 239.254,153.618 240.496,153.463C246.306,152.738 243.243,150.104 242.62,150.066C238.716,149.824 212.687,150.852 219.183,136.366C224.707,124.048 245.185,127.702 247.454,127.87Z" style="fill:rgb(245,175,55);"/>
        <path d="M512.551,127.913C514.305,127.725 528.15,126.24 534.553,129.388C535.274,129.742 540.366,132.246 541.716,136.425C542.975,140.322 534.891,138.874 534.504,138.856C521.834,138.245 517.057,135.155 516.565,138.526C516.063,141.969 518.265,140.206 524.504,140.608C552.306,142.4 541.237,156.371 536.275,160.143C531.505,163.769 516.589,163.782 511.498,162.507C506.624,161.287 499.604,155.642 500.29,152.437C500.554,151.203 508.763,151.53 509.503,151.56C517.896,151.895 522.938,155.165 525.453,152.455C531.413,146.032 498.662,156.084 500.131,138.415C500.683,131.782 511.314,128.317 512.551,127.913Z" style="fill:rgb(245,175,55);"/>
        <path d="M306.448,127.932C307.606,128.324 318.422,131.983 318.381,137.496C318.343,142.742 291.207,133.313 292.936,139.357C293.551,141.505 326.941,138.385 317.292,155.375C311.079,166.316 282.282,167.03 276.821,153.422C276.743,153.226 276.004,151.385 278.475,151.374C296.442,151.296 300.106,155.514 302.226,152.283C305.613,147.12 268.36,154.093 277.709,135.606C283.545,124.067 304.228,127.772 306.448,127.932Z" style="fill:rgb(245,175,55);"/>
        <path d="M103.55,127.893C104.276,127.845 110.755,126.614 120.45,127.907C129.342,129.092 137.044,139.255 129.495,139.035C111.988,138.526 111.527,135.113 107.753,137.817C101.523,142.28 124.973,138.594 131.092,144.893C140.244,154.315 120.885,170.338 97.467,160.564C95.487,159.738 86.401,151.202 94.498,151.381C112.602,151.781 113.4,155.653 116.374,152.391C118.935,149.582 109.161,150.076 98.5,148.502C87.102,146.819 88.049,130.635 103.55,127.893Z" style="fill:rgb(245,175,55);"/>
        <path d="M34.73,162.235C34.914,160.894 35.192,160.521 35.283,160.398C35.451,160.173 54.845,129.763 55.787,128.805C57.337,127.23 68.855,127.928 69.621,128.186C71.595,128.852 91.616,161.407 91.618,161.513C91.639,162.813 78.652,164.61 75.889,160.255C73.429,156.379 72.555,157.018 55.492,157.083C51.045,157.1 51.441,159.521 49.501,161.501C47.726,163.312 37.522,162.989 34.73,162.235ZM58.756,147.134C59.493,147.277 69.093,149.141 68.019,145.679C67.224,143.116 64.665,140.113 64.299,139.684C63.428,138.662 59.377,140.497 58.756,147.134Z" style="fill:rgb(245,175,56);"/>
        <path d="M944.5,127.899C951.089,128.007 951.056,127.911 951.616,128.015C953.154,128.302 953.888,128.794 953.354,147.492C952.783,167.538 922.096,166.114 912.887,158.055C905.933,151.969 908.53,128.586 909.336,128.218C910.527,127.676 920.788,127.882 921.611,128.017C927.259,128.941 918.778,151.786 928.573,153.2C941.191,155.022 938.527,143.721 938.622,130.504C938.651,126.562 940.568,128.217 944.5,127.899Z" style="fill:rgb(245,175,54);"/>
        <path d="M570.499,127.899C573.558,128.385 574.901,127.412 574.93,130.48C575.092,147.22 573.682,152.838 577.47,152.877C596.014,153.072 599.998,151.575 600.977,155.467C601.119,156.03 602.665,162.168 599.521,162.585C598.656,162.7 562.093,162.712 561.48,162.577C559.425,162.124 559.917,159.995 559.905,136.5C559.905,135.856 559.901,129.08 560.474,128.473C561.009,127.908 569.696,127.9 570.499,127.899Z" style="fill:rgb(244,175,56);"/>
        <path d="M711.798,127.981C726.055,126.407 728.16,128.833 729.072,129.883C736.105,137.987 737.315,138.074 739.16,136.164C745.464,129.641 746.268,127.923 749.507,127.907C754.635,127.882 764.335,127.169 761.998,129.685C756.765,135.316 744.744,144.283 744.709,148.504C744.664,154.008 745.73,162.558 742.517,162.642C733.873,162.868 729.642,163.052 729.567,160.493C729.271,150.383 732.21,148.992 724.951,142.045C711.971,129.621 711.728,129.52 711.798,127.981Z" style="fill:rgb(245,175,55);"/>
        <path d="M822.5,127.902C822.542,127.902 828.811,126.709 828.862,130.482C829.071,145.797 827.457,152.822 831.468,152.873C848.174,153.086 854.679,151.564 855.222,155.503C856.202,162.606 853.121,162.644 852.51,162.652C815.915,163.101 814.218,163.647 814.026,160.57C813.915,158.78 813.986,129.619 813.989,129.588C814.007,129.427 814.113,128.446 815.342,128.085C815.891,127.924 815.87,128.072 822.5,127.902Z" style="fill:rgb(244,175,56);"/>
        <path d="M518.5,40.822C519.803,40.969 521.131,40.724 522.435,40.871C527.256,41.415 521.839,75.989 520.163,76.187C511.048,77.267 510.591,75.289 510.413,74.518C510.12,73.25 510.234,73.238 507.927,58.436C507.731,57.18 507.061,42.071 508.358,41.333C509.693,40.574 516.892,40.829 518.5,40.822Z" style="fill:rgb(247,247,247);"/>
        <path d="M24.447,52.452C29.767,52.41 29.696,52.286 33.482,52.515C35.684,57.941 39.554,87.108 35.559,87.709C35.402,87.733 22.498,88.13 21.561,87.403C20.457,86.547 20.381,72.052 21.939,63.566C22.973,57.929 22.932,58.008 24.447,52.452Z" style="fill:rgb(247,247,247);"/>
        <path d="M141.507,127.92C148.921,127.924 152.707,127.544 153.133,129.569C153.802,132.755 153.218,157.999 153.161,160.471C153.104,162.935 149.597,162.878 140.483,162.646C137.906,162.58 138.075,161.145 138.377,130.495C138.41,127.195 141.447,127.937 141.507,127.92Z" style="fill:rgb(244,174,54);"/>
        <path d="M24.5,162.658C18.261,162.388 19.871,159.753 20.101,153.495C20.177,151.443 22.008,137.49 22.885,136.747C28.246,132.211 30.084,138.936 30.25,139.543C32.713,148.561 32.07,157.907 31.959,159.506C31.621,164.414 29.444,162.589 24.5,162.658Z" style="fill:rgb(242,173,56);"/>
        <path d="M963.5,127.902C966.804,128.234 968.31,127.146 968.332,130.506C968.344,132.39 968.481,153.514 964.624,153.764C958.339,154.171 958.631,152.806 958.581,152.479C958.295,150.602 955.602,132.967 956.836,128.801C957.056,128.056 962.962,127.915 963.5,127.902Z" style="fill:rgb(241,172,56);"/>
        <path d="M520.199,78.67C520.417,79.378 522.971,87.664 518.534,87.783C517.909,87.799 511.534,87.97 510.842,86.4C510.678,86.031 510.16,79.094 511.711,78.687C511.711,78.687 519.52,78.671 520.199,78.67Z" style="fill:rgb(245,245,245);"/>
        <path d="M24.219,49.675C21.741,40.802 25.78,40.821 26.512,40.824C27.074,40.827 32.906,40.854 33.507,41.494C34.449,42.496 33.953,42.657 33.628,49.566C31.295,50.269 31.281,49.915 24.219,49.675Z" style="fill:rgb(248,248,248);"/>
        <path d="M148.501,115.561C154.016,115.589 153.996,115.47 154.456,115.591C154.865,115.698 155.951,116.224 152.481,120.484C144.69,130.051 142.989,123.162 143.223,122.442C145.366,115.847 145.933,115.855 148.501,115.561Z" style="fill:rgb(237,172,60);"/>
        <path d="M962.499,162.658C958.54,162.418 958.367,161.346 959.073,157.419C959.402,155.589 965.893,155.474 966.178,157.537C967.01,163.544 963.473,162.53 962.499,162.658Z" style="fill:rgb(232,169,62);"/>
        <path d="M29.089,134.268C24.552,134.317 23.663,135.859 22.742,133.437C22.679,133.272 22.596,130.297 22.686,129.538C22.872,127.96 31.979,124.399 29.089,134.268Z" style="fill:rgb(233,171,63);"/>
    </g>
</svg>
